<?xml version="1.0" standalone="no"?>
<!DOCTYPE svg PUBLIC "-//W3C//DTD SVG 20010904//EN"
 "http://www.w3.org/TR/2001/REC-SVG-20010904/DTD/svg10.dtd">
<svg version="1.0" xmlns="http://www.w3.org/2000/svg"
 width="1024.000000pt" height="1024.000000pt" viewBox="0 0 1024.000000 1024.000000"
 preserveAspectRatio="xMidYMid meet">

<g transform="translate(0.000000,1024.000000) scale(0.100000,-0.100000)"
fill="#ffffff" stroke="none">
<path d="M2829 7915 c-72 -7 -139 -20 -157 -29 -62 -32 -59 6 -64 -888 -3
-450 -2 -821 2 -825 4 -4 4 -44 1 -88 -6 -70 -6 -468 0 -595 1 -25 1 -225 1
-445 0 -220 0 -411 0 -425 0 -14 -1 -107 -1 -208 -1 -100 1 -187 4 -192 4 -6
3 -10 -2 -10 -4 0 -7 -87 -5 -194 l3 -194 22 6 c13 3 18 1 14 -4 -5 -5 -14 -9
-20 -9 -7 0 -13 -10 -15 -22 -2 -16 2 -23 12 -23 20 0 21 -29 1 -36 -13 -5
-15 -35 -15 -183 l0 -178 40 -43 c36 -39 42 -42 77 -37 21 4 75 19 121 34 61
20 82 32 82 45 0 11 -5 15 -15 12 -9 -4 -15 0 -15 9 0 19 22 35 27 20 2 -5 15
-8 28 -5 25 4 60 -20 47 -33 -7 -7 79 2 102 11 7 3 10 20 8 45 -5 50 17 51 30
1 10 -38 10 -38 158 -16 58 8 198 17 312 21 167 5 205 8 201 19 -8 21 20 17
40 -6 21 -25 107 -29 107 -6 0 18 17 29 30 21 8 -5 8 -11 0 -20 -9 -10 2 -14
52 -19 260 -27 591 -113 795 -207 66 -30 88 -37 95 -27 6 10 8 9 8 -4 0 -10
28 -32 76 -58 60 -34 82 -41 107 -36 18 3 97 38 177 77 277 136 530 207 905
256 214 27 556 23 776 -10 169 -26 361 -70 465 -107 86 -30 110 -27 155 19
l39 39 -3 1428 c-2 786 -4 1438 -3 1449 0 11 0 80 1 153 l0 134 -33 29 c-60
54 -150 30 -170 -44 -14 -49 -3 -938 12 -956 8 -11 8 -15 -1 -18 -10 -4 -13
-78 -13 -328 0 -250 3 -324 13 -328 10 -3 10 -9 0 -26 -17 -28 -18 -222 -1
-239 9 -9 9 -12 0 -12 -9 0 -12 -123 -12 -525 l0 -525 -24 0 c-12 0 -36 4 -52
9 -65 19 -256 55 -380 71 -147 19 -480 29 -633 19 -248 -16 -490 -58 -721
-123 -132 -37 -224 -73 -369 -142 -74 -35 -141 -64 -150 -64 -9 0 -41 14 -71
31 -95 54 -192 100 -283 135 -103 40 -107 40 -100 15 3 -10 -1 -22 -7 -26 -9
-5 -10 -1 -5 14 5 16 -1 25 -26 40 -40 25 -98 36 -112 22 -15 -15 -27 -14 -21
3 4 9 -13 18 -60 30 -83 20 -126 21 -126 1 0 -8 -4 -15 -9 -15 -5 0 -14 7 -21
15 -10 12 -10 15 1 16 19 1 -31 17 -58 18 -14 1 -23 -5 -23 -14 0 -8 -7 -15
-15 -15 -8 0 -15 -4 -15 -9 0 -14 28 -33 40 -26 5 3 10 -2 10 -13 0 -10 9 -27
20 -37 11 -10 18 -20 15 -23 -2 -3 -21 10 -41 28 -38 33 -57 29 -47 -10 3 -13
0 -18 -12 -17 -11 1 -22 -9 -29 -29 l-11 -31 -40 21 c-22 12 -41 28 -42 36 0
8 -5 31 -9 50 -4 20 -3 32 2 27 5 -5 9 -14 9 -20 0 -7 11 -13 25 -13 14 -1 39
-3 55 -5 26 -4 30 -1 27 19 -2 12 4 29 13 38 21 21 15 48 -10 51 -11 2 -45 7
-75 12 -30 5 -85 10 -122 10 -61 1 -67 -1 -71 -21 l-4 -23 -2 23 c-1 24 -11
25 -176 24 -144 -1 -150 -1 -137 -14 14 -14 16 -32 3 -24 -5 4 -12 0 -14 -6
-3 -7 -6 -1 -6 15 -1 23 -5 27 -31 27 -17 0 -30 -5 -30 -12 0 -10 -2 -10 -8 0
-11 17 -93 5 -109 -16 -8 -10 -13 -11 -13 -4 0 7 -15 12 -37 12 -54 0 -83 -10
-83 -27 0 -12 -3 -13 -14 -4 -12 10 -13 8 -9 -9 5 -18 2 -21 -13 -18 -11 2
-18 11 -17 22 1 15 -4 17 -40 11 -23 -4 -60 -13 -81 -21 -22 -7 -44 -10 -50
-7 -5 4 -7 -1 -2 -12 5 -15 4 -16 -9 -5 -13 11 -26 11 -71 1 -34 -8 -54 -17
-51 -24 17 -47 18 -57 3 -57 -11 0 -16 9 -16 30 0 21 -5 30 -16 30 -15 0 -16
10 -11 78 4 50 2 83 -4 89 -8 8 -7 13 0 17 7 5 11 47 11 112 0 86 -3 104 -15
104 -19 0 -20 26 -1 33 12 5 15 36 13 179 l-2 172 -25 6 c-31 7 -33 35 -2 34
26 -1 23 -56 28 529 2 224 -1 367 -7 367 -9 0 -13 -21 -10 -47 2 -16 -11 -17
-26 -2 -16 16 7 69 30 69 14 0 17 7 15 34 -2 35 -20 69 -35 65 -4 -1 -14 9
-20 22 -7 13 -13 22 -14 19 -10 -58 -19 -80 -33 -80 -16 0 -48 72 -37 83 5 5
7 16 4 23 -3 8 0 14 7 14 6 0 8 5 5 10 -3 6 0 10 8 10 16 0 31 27 28 48 -1 6
3 12 9 12 5 0 10 -4 10 -9 0 -5 9 -11 20 -13 14 -2 17 -7 11 -17 -8 -12 -12
-12 -25 -2 -13 11 -16 11 -16 -3 0 -9 7 -16 15 -16 8 0 15 -4 15 -10 0 -5 -7
-10 -15 -10 -8 0 -15 -7 -15 -15 0 -10 9 -13 31 -10 17 2 34 6 37 10 11 11 11
169 0 176 -8 5 -9 11 -1 21 6 8 11 75 12 165 1 131 -1 153 -15 161 -15 8 -15
10 0 15 14 6 16 46 16 385 0 289 -3 381 -12 391 -10 11 -10 14 0 18 9 4 12 74
12 304 0 293 0 299 -19 289 -11 -5 -27 -10 -35 -10 -11 0 -9 6 8 25 13 14 28
25 35 25 8 0 11 42 11 139 l0 140 58 8 c88 12 614 9 722 -5 362 -47 630 -112
895 -219 135 -54 359 -166 438 -219 33 -21 77 -51 100 -66 69 -47 102 -40 241
50 179 115 369 202 669 307 84 29 111 44 120 62 11 24 31 30 42 13 3 -5 -1
-10 -9 -10 -9 0 -16 -4 -16 -10 0 -13 28 -13 66 0 16 5 48 14 72 20 36 9 42
15 43 38 2 23 2 24 6 5 7 -34 53 -32 53 2 0 31 25 34 33 4 5 -18 11 -20 34
-15 15 4 98 16 183 28 133 18 205 21 498 20 189 0 345 -2 348 -5 3 -3 5 -98 5
-211 -1 -168 2 -212 15 -246 17 -43 55 -70 97 -70 40 0 90 41 103 85 17 54 17
167 2 184 -10 11 -10 14 0 18 9 3 12 47 12 170 0 149 -2 169 -20 198 -39 62
-64 71 -253 83 -102 7 -107 6 -113 -13 -3 -11 -10 -33 -17 -50 l-11 -29 -6 24
c-5 19 -12 24 -29 22 -18 -3 -22 1 -19 15 3 13 11 17 33 15 25 -3 27 -1 16 12
-11 13 -39 16 -155 16 -147 0 -179 -7 -151 -30 35 -29 7 -53 -36 -29 -15 8
-24 7 -36 -3 -14 -11 -15 -9 -11 21 l5 34 -106 -7 c-144 -9 -264 -23 -401 -47
-317 -56 -715 -176 -694 -210 4 -8 -3 -9 -24 -4 -24 5 -35 2 -48 -14 -10 -11
-21 -18 -25 -15 -12 7 -79 -23 -79 -35 0 -6 4 -11 8 -11 5 0 17 -6 28 -14 18
-14 16 -14 -16 -11 -19 1 -42 6 -51 9 -23 10 -74 -13 -200 -90 l-108 -66 21
-29 c12 -16 25 -29 30 -29 4 0 8 -9 8 -20 0 -11 -7 -20 -15 -20 -8 0 -15 4
-15 9 0 5 -10 11 -22 13 -19 2 -23 9 -22 34 1 33 5 29 -149 128 -80 52 -250
131 -254 119 -2 -6 -16 -8 -31 -5 l-27 6 25 7 c22 6 17 10 -50 42 -109 51
-281 109 -306 103 -14 -4 -24 -1 -27 8 -9 24 -315 91 -577 127 -197 26 -694
35 -891 14z m491 -5 c0 -5 -4 -10 -10 -10 -5 0 -10 5 -10 10 0 6 5 10 10 10 6
0 10 -4 10 -10z m330 -20 c0 -5 -4 -10 -10 -10 -5 0 -10 5 -10 10 0 6 5 10 10
10 6 0 10 -4 10 -10z m-793 -32 c-3 -8 -6 -5 -6 6 -1 11 2 17 5 13 3 -3 4 -12
1 -19z m398 2 c-28 -12 -45 -12 -45 0 0 6 15 10 33 9 27 0 29 -2 12 -9z m-495
-10 c0 -5 -7 -10 -16 -10 -8 0 -12 5 -9 10 3 6 10 10 16 10 5 0 9 -4 9 -10z
m1135 -10 c-3 -5 -10 -10 -16 -10 -5 0 -9 5 -9 10 0 6 7 10 16 10 8 0 12 -4 9
-10z m3218 -28 c3 -4 3 -19 0 -33 -4 -21 -10 -26 -29 -25 -23 1 -35 16 -13 16
12 0 39 25 39 35 0 4 -10 5 -23 2 -12 -4 -29 -2 -37 3 -11 7 -5 10 22 10 20 0
39 -3 41 -8z m97 -22 c-10 -19 -50 -47 -50 -35 0 6 50 55 57 55 2 0 -1 -9 -7
-20z m-1040 -4 c0 -3 -4 -8 -10 -11 -5 -3 -10 -1 -10 4 0 6 5 11 10 11 6 0 10
-2 10 -4z m990 -6 c0 -5 -10 -10 -22 -9 -22 0 -22 1 -3 9 11 5 21 9 23 9 1 1
2 -3 2 -9z m-1034 -35 c8 -42 -13 -72 -54 -77 -16 -2 -31 -13 -39 -28 -11 -22
-13 -22 -19 -6 -5 14 -9 15 -15 5 -6 -10 -9 -9 -15 4 -4 12 0 23 12 32 18 14
18 15 -5 33 -23 19 -17 36 11 28 56 -18 66 -16 78 14 17 40 38 38 46 -5z m314
20 c0 -9 -6 -12 -15 -9 -8 4 -12 10 -9 15 8 14 24 10 24 -6z m-460 -3 c0 -13
-12 -22 -22 -16 -10 6 -1 24 13 24 5 0 9 -4 9 -8z m-2815 -12 c-3 -5 -10 -10
-16 -10 -5 0 -9 5 -9 10 0 6 7 10 16 10 8 0 12 -4 9 -10z m1195 -20 c0 -5 -5
-10 -11 -10 -5 0 -7 5 -4 10 3 6 8 10 11 10 2 0 4 -4 4 -10z m-583 -32 c-3 -8
-6 -5 -6 6 -1 11 2 17 5 13 3 -3 4 -12 1 -19z m177 7 c-4 -8 -10 -15 -15 -15
-5 0 -9 7 -9 15 0 8 7 15 15 15 9 0 12 -6 9 -15z m426 -34 c0 -12 -29 -23 -41
-15 -16 10 -9 20 16 22 14 1 25 -2 25 -7z m1555 -1 c18 -8 17 -9 -7 -9 -16 -1
-28 4 -28 9 0 12 8 12 35 0z m300 1 c3 -5 1 -12 -5 -16 -5 -3 -10 1 -10 9 0
18 6 21 15 7z m-535 -37 c0 -8 -4 -12 -10 -9 -5 3 -10 10 -10 16 0 5 5 9 10 9
6 0 10 -7 10 -16z m-1067 -17 c-2 -4 -3 -12 -3 -17 0 -6 -16 -10 -35 -8 -34 2
-48 22 -22 31 18 7 62 3 60 -6z m-208 -45 c-3 -3 -11 0 -18 7 -9 10 -8 11 6 5
10 -3 15 -9 12 -12z m365 -52 c0 -5 -7 -10 -16 -10 -8 0 -12 5 -9 10 3 6 10
10 16 10 5 0 9 -4 9 -10z m630 -4 c0 -3 -4 -8 -10 -11 -5 -3 -10 -1 -10 4 0 6
5 11 10 11 6 0 10 -2 10 -4z m-700 -30 c0 -3 -4 -8 -10 -11 -5 -3 -10 -1 -10
4 0 6 5 11 10 11 6 0 10 -2 10 -4z m45 -66 c-3 -5 -10 -10 -16 -10 -5 0 -9 5
-9 10 0 6 7 10 16 10 8 0 12 -4 9 -10z m135 -20 c0 -5 -5 -10 -11 -10 -5 0 -7
5 -4 10 3 6 8 10 11 10 2 0 4 -4 4 -10z m184 4 c25 -9 19 -24 -9 -24 -16 0
-25 6 -25 15 0 16 9 19 34 9z m-108 -31 c-10 -10 -19 5 -10 18 6 11 8 11 12 0
2 -7 1 -15 -2 -18z m339 -13 c3 -5 1 -10 -4 -10 -6 0 -11 5 -11 10 0 6 2 10 4
10 3 0 8 -4 11 -10z m-375 -20 c4 0 11 -7 14 -16 4 -12 2 -15 -9 -10 -8 3 -15
1 -15 -5 0 -20 -23 -3 -27 20 -2 18 0 22 13 17 8 -3 19 -6 24 -6z m375 -30 c8
-13 -1 -13 -26 0 -10 6 -19 15 -19 21 0 11 35 -5 45 -21z m-49 5 c20 -15 16
-18 -31 -16 -23 2 -27 0 -15 -8 13 -9 13 -11 -2 -11 -21 0 -23 15 -5 35 16 18
29 18 53 0z m-166 -5 c0 -5 -12 -10 -26 -10 -14 0 -23 4 -19 10 3 6 15 10 26
10 10 0 19 -4 19 -10z m78 -50 c-15 -24 -38 -34 -38 -17 0 17 20 37 37 37 11
0 11 -4 1 -20z m-2422 -865 c7 -17 -21 -65 -36 -65 -5 0 -9 12 -8 28 3 45 32
70 44 37z m-61 -197 c-14 -11 -29 -17 -33 -13 -9 9 38 46 49 39 5 -3 -2 -15
-16 -26z m96 -301 c-13 -13 -26 -3 -16 12 3 6 11 8 17 5 6 -4 6 -10 -1 -17z
m4694 -157 c3 -5 1 -10 -4 -10 -6 0 -11 5 -11 10 0 6 2 10 4 10 3 0 8 -4 11
-10z m-4702 -14 c4 -10 1 -13 -9 -9 -7 3 -14 9 -14 14 0 14 17 10 23 -5z m1
-42 c18 -7 12 -24 -10 -24 -8 0 -14 7 -14 15 0 17 2 18 24 9z m4725 -50 c21
-26 30 -81 12 -69 -6 3 -14 -2 -19 -11 -21 -38 -58 41 -39 84 13 28 21 28 46
-4z m-4738 -337 c-16 -16 -25 -1 -10 16 8 8 16 11 18 5 2 -5 -2 -15 -8 -21z
m-100 -67 c6 0 6 -8 -1 -20 -12 -22 -18 -24 -40 -10 -13 8 -12 14 5 47 20 37
20 37 23 10 2 -15 8 -27 13 -27z m59 39 c0 -5 -4 -7 -10 -4 -5 3 -10 1 -10 -4
0 -6 -5 -11 -11 -11 -8 0 -8 5 1 15 14 17 30 20 30 4z m-14 -129 c11 0 14 -9
12 -32 -4 -42 -28 -50 -28 -9 0 20 -6 34 -16 38 -13 5 -13 7 -2 14 7 5 14 4
16 -1 2 -6 10 -10 18 -10z m-66 -30 c0 -5 -4 -10 -10 -10 -5 0 -10 5 -10 10 0
6 5 10 10 10 6 0 10 -4 10 -10z m78 -152 c-6 -18 -28 -21 -28 -4 0 9 7 16 16
16 9 0 14 -5 12 -12z m-8 -43 c0 -8 -4 -15 -9 -15 -5 0 -11 7 -15 15 -3 9 0
15 9 15 8 0 15 -7 15 -15z m-50 -309 c0 -3 -4 -8 -10 -11 -5 -3 -10 -1 -10 4
0 6 5 11 10 11 6 0 10 -2 10 -4z m112 -81 c-3 -11 -8 -22 -11 -25 -17 -15 -38
-69 -30 -81 14 -23 -1 -30 -23 -10 -16 15 -18 26 -13 51 5 23 4 30 -4 26 -14
-9 -14 -6 -1 30 9 26 15 29 49 29 33 0 37 -2 33 -20z m-132 -115 c0 -5 -4 -10
-10 -10 -5 0 -10 5 -10 10 0 6 5 10 10 10 6 0 10 -4 10 -10z m90 -40 c0 -5 -4
-10 -10 -10 -5 0 -10 5 -10 10 0 6 5 10 10 10 6 0 10 -4 10 -10z m-14 -98 c-3
-3 -1 -11 5 -18 7 -9 5 -14 -10 -18 -12 -3 -30 -9 -41 -12 -11 -3 -20 -1 -20
6 0 18 49 62 61 55 6 -4 8 -10 5 -13z m4783 -71 c8 -5 11 -16 8 -25 -5 -13
-11 -14 -32 -4 -27 12 -32 24 -12 31 18 8 21 8 36 -2z m-4734 -261 c-3 -5 -13
-10 -20 -10 -9 0 -12 -6 -9 -15 4 -8 1 -15 -6 -15 -6 0 -8 5 -5 11 4 6 -3 13
-16 17 -23 6 -23 6 6 13 46 10 57 10 50 -1z m22 -42 c-3 -8 -6 -5 -6 6 -1 11
2 17 5 13 3 -3 4 -12 1 -19z m-142 -248 c3 -5 1 -10 -4 -10 -6 0 -11 5 -11 10
0 6 2 10 4 10 3 0 8 -4 11 -10z m1015 -10 c0 -5 -2 -10 -4 -10 -3 0 -8 5 -11
10 -3 6 -1 10 4 10 6 0 11 -4 11 -10z m3081 -17 c-8 -15 -10 -15 -11 -2 0 17
10 32 18 25 2 -3 -1 -13 -7 -23z m-3141 7 c0 -5 -5 -10 -11 -10 -5 0 -7 5 -4
10 3 6 8 10 11 10 2 0 4 -4 4 -10z m3950 0 c0 -5 -2 -10 -4 -10 -3 0 -8 5 -11
10 -3 6 -1 10 4 10 6 0 11 -4 11 -10z m-740 -43 c0 -6 -9 -2 -20 8 -11 10 -20
23 -20 28 0 6 9 2 20 -8 11 -10 20 -23 20 -28z m-2730 23 c0 -6 -7 -13 -16
-17 -8 -3 -13 -12 -10 -19 6 -17 -10 -28 -19 -14 -4 6 1 22 9 35 17 26 36 33
36 15z m-725 -30 c-3 -5 -14 -6 -25 -3 -11 3 -20 1 -20 -5 0 -5 -11 -9 -25 -8
-34 2 -32 24 3 28 36 4 73 -2 67 -12z m3785 12 c0 -13 -12 -22 -22 -16 -10 6
-1 24 13 24 5 0 9 -4 9 -8z m-3540 -17 c0 -8 -4 -15 -10 -15 -5 0 -10 7 -10
15 0 8 5 15 10 15 6 0 10 -7 10 -15z m760 -6 c0 -11 -4 -17 -10 -14 -5 3 -10
13 -10 21 0 8 5 14 10 14 6 0 10 -9 10 -21z m2475 1 c3 -5 1 -10 -4 -10 -6 0
-11 5 -11 10 0 6 2 10 4 10 3 0 8 -4 11 -10z m261 -9 c0 -11 -5 -17 -13 -14
-10 4 -11 9 -2 19 15 18 15 18 15 -5z m-4443 3 c-7 -3 -9 -12 -6 -20 6 -16
-13 -19 -23 -3 -7 11 13 29 31 28 6 0 5 -3 -2 -5z m1630 -7 c3 -8 1 -20 -4
-28 -7 -11 -10 -9 -15 8 -4 13 -10 20 -15 17 -5 -3 -9 0 -9 5 0 16 37 13 43
-2z m2363 -5 c-10 -2 -22 0 -28 6 -6 6 0 7 19 4 21 -5 23 -7 9 -10z m-2196 1
c0 -23 -22 -83 -30 -83 -11 0 -13 50 -4 74 6 16 34 23 34 9z m107 -40 c-16
-16 -17 -16 -17 3 0 11 3 24 7 28 4 3 11 2 17 -4 7 -7 5 -16 -7 -27z m-172
-14 c-8 -23 -8 -23 -15 -4 -9 26 -1 50 12 37 6 -6 7 -21 3 -33z m2775 27 c0
-8 -4 -18 -10 -21 -5 -3 -10 3 -10 14 0 12 5 21 10 21 6 0 10 -6 10 -14z
m-3348 -28 c-9 -9 -12 -7 -12 12 0 19 3 21 12 12 9 -9 9 -15 0 -24z m-692 0
c0 -16 -3 -19 -11 -11 -6 6 -8 16 -5 22 11 17 16 13 16 -11z m-311 -13 c23
-14 9 -25 -33 -25 -52 0 -76 8 -76 24 0 12 90 14 109 1z m962 -11 c9 -11 6
-14 -15 -14 -16 0 -25 4 -21 10 3 6 1 10 -4 10 -6 0 -11 4 -11 9 0 13 37 2 51
-15z m513 0 c9 -24 7 -28 -9 -14 -17 14 -20 30 -6 30 5 0 12 -7 15 -16z m2256
6 c0 -5 -5 -10 -11 -10 -5 0 -7 5 -4 10 3 6 8 10 11 10 2 0 4 -4 4 -10z m257
-5 c0 -8 -4 -12 -9 -9 -5 3 -6 10 -3 15 9 13 12 11 12 -6z m-3613 -1 c17 -7
23 -54 7 -54 -14 0 -41 41 -35 52 6 10 8 10 28 2z m161 -4 c3 -5 1 -10 -4 -10
-6 0 -11 5 -11 10 0 6 2 10 4 10 3 0 8 -4 11 -10z m45 -5 c0 -8 -4 -15 -10
-15 -5 0 -10 7 -10 15 0 8 5 15 10 15 6 0 10 -7 10 -15z m518 3 c-2 -6 -10
-14 -16 -16 -7 -2 -10 2 -6 12 7 18 28 22 22 4z m670 -5 c-2 -13 -14 -19 -41
-20 -46 -3 -47 3 -4 21 43 19 49 19 45 -1z m-1558 -3 c0 -5 -4 -10 -10 -10 -5
0 -10 5 -10 10 0 6 5 10 10 10 6 0 10 -4 10 -10z m1440 0 c0 -5 -4 -10 -10
-10 -5 0 -10 5 -10 10 0 6 5 10 10 10 6 0 10 -4 10 -10z m-60 -40 c0 -5 -9
-10 -21 -10 -11 0 -17 5 -14 10 3 6 13 10 21 10 8 0 14 -4 14 -10z m2700 0 c0
-5 -2 -10 -4 -10 -3 0 -8 5 -11 10 -3 6 -1 10 4 10 6 0 11 -4 11 -10z m-2233
-25 c-10 -7 -17 -20 -17 -29 0 -9 -4 -16 -10 -16 -5 0 -10 10 -10 21 0 24 29
51 44 42 5 -4 2 -11 -7 -18z m-550 9 c-3 -3 -12 -4 -19 -1 -8 3 -5 6 6 6 11 1
17 -2 13 -5z m-1657 -14 c0 -5 -4 -10 -10 -10 -5 0 -10 5 -10 10 0 6 5 10 10
10 6 0 10 -4 10 -10z m1835 0 c3 -5 2 -10 -4 -10 -5 0 -13 5 -16 10 -3 6 -2
10 4 10 5 0 13 -4 16 -10z m442 -27 c-15 -16 -17 -16 -17 -1 0 9 6 18 13 21
20 7 22 -2 4 -20z m387 -2 c3 -5 -5 -11 -19 -13 -24 -5 -32 2 -18 15 9 10 31
9 37 -2z m2201 -21 c3 -5 1 -10 -4 -10 -6 0 -11 5 -11 10 0 6 2 10 4 10 3 0 8
-4 11 -10z m-2395 -44 c0 -2 3 -11 6 -19 4 -11 -4 -15 -35 -15 -43 -1 -53 10
-23 27 17 10 52 15 52 7z m221 -43 c11 3 17 1 13 -4 -3 -5 -20 -8 -39 -6 -24
1 -35 8 -39 21 -9 33 5 38 26 11 13 -17 27 -25 39 -22z"/>
<path d="M2253 7334 c-18 -9 -42 -32 -53 -51 -19 -32 -20 -48 -18 -231 3 -191
4 -197 23 -194 11 2 22 8 23 13 7 18 30 -11 25 -31 -4 -15 -9 -17 -30 -9 -13
5 -29 9 -34 9 -5 0 -9 -86 -9 -209 0 -173 3 -211 15 -221 18 -15 20 -34 2 -27
-11 4 -14 -83 -16 -469 -2 -444 -2 -474 15 -467 12 4 15 2 12 -8 -3 -8 -11
-13 -18 -11 -15 3 -4 -51 11 -56 15 -6 10 -22 -6 -22 -9 0 -15 -9 -15 -25 0
-14 5 -25 10 -25 6 0 10 5 10 10 0 6 5 10 10 10 6 0 10 -9 10 -20 0 -13 -7
-20 -20 -20 -23 0 -27 -15 -5 -24 20 -7 19 -26 0 -26 -14 0 -15 -59 -15 -506
1 -451 3 -505 17 -500 8 4 34 8 57 11 37 4 42 2 53 -22 16 -34 2 -45 -44 -37
-55 10 -83 -2 -83 -36 0 -16 5 -32 11 -36 8 -4 7 -9 -2 -15 -11 -7 -9 -10 9
-15 26 -7 30 -26 5 -22 -17 3 -18 -20 -21 -347 -3 -347 0 -415 18 -415 5 0 7
6 4 14 -3 8 3 19 15 25 35 19 49 13 53 -24 4 -35 4 -35 -28 -29 -45 8 -60 -3
-37 -28 18 -20 17 -20 -4 -14 -13 4 -23 3 -23 -2 0 -5 10 -17 23 -26 l22 -17
-23 6 c-20 6 -22 3 -22 -29 0 -41 11 -45 42 -16 21 19 22 19 34 1 18 -26 7
-61 -20 -61 -12 0 -28 -6 -35 -13 -11 -10 -13 -9 -8 6 4 11 3 16 -3 12 -17
-11 -12 -55 7 -55 15 0 15 -1 0 -18 -14 -15 -17 -56 -22 -275 l-5 -256 25 -25
c14 -15 38 -27 53 -27 17 -1 20 -3 10 -6 -16 -4 -22 -15 -19 -35 0 -3 -13 -9
-29 -13 l-30 -7 2 -120 3 -120 33 -29 c56 -50 91 -40 193 55 83 77 135 118
177 140 17 9 32 23 32 32 0 8 6 14 13 12 10 -2 58 21 107 52 8 5 47 21 85 35
39 14 79 31 89 37 28 15 194 66 244 74 27 4 42 12 42 21 0 8 5 11 10 8 14 -9
100 5 100 16 0 5 -15 9 -34 9 -19 0 -38 5 -41 11 -4 6 -17 14 -29 19 -20 8
-20 9 5 9 14 1 30 6 37 13 9 9 13 7 18 -5 3 -9 20 -24 37 -34 29 -17 44 -18
162 -10 124 9 155 14 128 24 -19 7 -15 20 7 26 17 4 20 1 18 -16 -3 -22 0 -22
157 -28 88 -4 205 -14 259 -22 54 -9 102 -15 105 -15 3 1 13 -1 21 -5 78 -29
135 -35 143 -14 4 7 8 3 12 -10 5 -16 24 -27 74 -43 86 -28 285 -123 387 -187
44 -27 130 -87 190 -133 155 -118 161 -118 308 0 39 31 112 80 162 109 75 43
91 56 87 72 -4 13 0 19 11 19 10 0 13 -6 10 -15 -5 -11 15 -6 69 19 103 47
252 100 367 131 141 38 140 37 133 82 -3 21 -12 53 -19 72 -19 47 -18 47 21
12 20 -17 42 -31 51 -31 15 0 39 -46 35 -69 -2 -9 4 -12 21 -8 13 3 92 14 177
23 134 15 174 16 305 5 160 -13 335 -44 478 -86 89 -25 265 -96 305 -123 13
-8 30 -12 38 -8 9 3 13 2 10 -4 -3 -5 5 -12 19 -16 13 -3 27 -12 30 -19 5 -15
65 -49 72 -42 3 2 21 -12 42 -32 45 -43 188 -163 208 -174 42 -24 121 -2 146
41 21 35 36 450 18 496 -7 20 -8 32 0 40 6 6 10 61 10 132 0 108 -2 123 -17
127 -16 4 -16 5 -1 6 16 1 17 32 18 396 0 440 0 441 -66 472 -31 15 -39 16
-76 3 -23 -8 -51 -28 -62 -43 -21 -28 -21 -32 -18 -677 3 -432 0 -650 -7 -654
-5 -4 -47 18 -93 48 -296 193 -577 289 -952 326 -88 9 -111 8 -117 -2 -7 -11
-12 -11 -29 0 -29 18 -272 8 -450 -19 -107 -16 -139 -24 -152 -40 -13 -16 -21
-18 -36 -10 -14 7 -24 6 -38 -4 -11 -8 -35 -15 -54 -15 -37 0 -109 -21 -225
-65 -38 -15 -81 -30 -95 -34 -42 -14 -210 -101 -209 -109 3 -17 -14 -51 -28
-56 -13 -6 -13 -3 1 18 23 36 20 39 -16 20 -18 -10 -27 -19 -20 -21 20 -7 13
-22 -8 -16 -14 4 -20 0 -20 -11 0 -12 -6 -15 -22 -11 -17 4 -41 -8 -95 -49
-60 -47 -73 -53 -83 -41 -7 8 -17 15 -23 15 -5 0 -28 16 -51 36 -56 48 -56 48
-133 98 -120 77 -420 216 -469 216 -6 0 -26 7 -44 17 -18 9 -55 17 -82 17 -26
1 -48 4 -48 8 0 7 -60 26 -110 34 -14 3 -33 7 -42 10 -13 4 -19 -3 -25 -23
l-7 -28 -6 30 c-4 23 -12 31 -37 36 -37 7 -48 2 -32 -17 6 -8 7 -14 0 -18 -6
-4 -18 5 -27 19 -18 28 -71 37 -60 10 3 -9 0 -15 -9 -15 -18 0 -31 20 -13 21
7 0 4 4 -7 9 -11 5 -57 9 -102 9 l-83 1 0 -40 c0 -38 13 -55 22 -28 3 8 6 6
10 -4 4 -9 1 -24 -6 -33 -18 -25 -56 -4 -56 31 0 17 -7 28 -20 31 -11 3 -20
14 -20 24 0 11 -4 19 -9 19 -23 0 -41 -14 -41 -31 0 -25 -17 -24 -25 1 -5 17
-15 20 -59 20 -78 0 -116 -9 -109 -27 4 -11 -12 -55 -35 -92 -3 -5 -52 50 -68
75 -10 16 -15 17 -60 5 -27 -7 -65 -15 -84 -18 -19 -3 -41 -12 -48 -21 -10
-13 -15 -14 -21 -4 -6 10 -27 6 -97 -17 -132 -43 -170 -61 -154 -71 17 -10 15
-12 -27 -34 -34 -17 -45 -8 -18 14 37 31 -2 17 -117 -40 -68 -33 -137 -74
-153 -90 -17 -17 -36 -30 -43 -30 -6 0 -14 -11 -18 -25 -3 -13 -12 -29 -20
-35 -11 -10 -12 -7 -9 12 l4 23 -18 -24 c-18 -23 -18 -18 -13 253 4 231 3 280
-9 287 -10 6 -10 9 -1 9 9 0 12 53 12 230 0 200 -2 229 -15 224 -8 -4 -15 -1
-15 5 0 6 7 11 15 11 10 0 15 10 15 30 0 17 -4 30 -9 30 -6 0 -6 12 -2 28 4
15 9 389 10 831 1 802 1 803 -19 798 -26 -7 -26 9 0 23 11 6 20 16 20 22 0 10
-16 8 -52 -7 -13 -5 -18 -2 -18 9 0 9 6 16 13 15 6 -1 22 -1 35 0 l22 1 -1
624 c-1 569 -3 625 -18 629 -14 4 -14 5 2 6 16 1 17 24 17 335 0 258 -3 336
-12 340 -10 5 -10 7 0 12 17 8 15 98 -3 134 -26 51 -66 62 -122 34z m77 -54
c-10 -7 -12 -12 -4 -17 6 -5 9 -25 6 -46 -4 -35 -7 -38 -29 -32 -14 3 -31 1
-39 -6 -19 -15 -18 -2 1 17 8 9 15 26 15 39 0 23 33 55 55 55 5 0 3 -5 -5 -10z
m-103 -52 c-3 -8 -6 -5 -6 6 -1 11 2 17 5 13 3 -3 4 -12 1 -19z m133 -48 c0
-5 -5 -10 -11 -10 -5 0 -7 5 -4 10 3 6 8 10 11 10 2 0 4 -4 4 -10z m-86 -110
c1 -22 -2 -40 -5 -40 -11 0 -26 24 -33 52 -5 20 -2 27 11 30 25 6 26 4 27 -42z
m76 10 c0 -5 -4 -10 -10 -10 -5 0 -10 5 -10 10 0 6 5 10 10 10 6 0 10 -4 10
-10z m-109 -173 c-14 -14 -26 17 -16 41 6 15 8 14 16 -7 6 -16 6 -28 0 -34z
m69 -523 c0 -3 -5 -14 -11 -25 -8 -15 -5 -25 11 -47 l22 -27 -21 -3 c-12 -2
-21 -8 -21 -13 0 -5 -5 -9 -10 -9 -7 0 -7 6 0 19 18 35 12 42 -24 27 -32 -13
-34 -13 -39 6 -5 16 -2 19 17 14 18 -4 24 0 35 29 7 19 19 35 27 35 8 0 14 -3
14 -6z m-70 -159 c-7 -8 -16 -15 -21 -15 -5 0 -6 7 -3 15 4 8 13 15 21 15 13
0 13 -3 3 -15z m20 -19 c0 -17 -14 -29 -23 -20 -8 8 3 34 14 34 5 0 9 -6 9
-14z m85 4 c-3 -5 -11 -10 -16 -10 -6 0 -7 5 -4 10 3 6 11 10 16 10 6 0 7 -4
4 -10z m-57 -28 c-10 -2 -18 -8 -18 -14 0 -6 -2 -9 -5 -6 -12 12 7 37 23 30
16 -6 15 -7 0 -10z m-3 -62 c3 -5 -1 -10 -9 -10 -9 0 -16 5 -16 10 0 6 4 10 9
10 6 0 13 -4 16 -10z m-18 -90 c11 0 10 -5 -3 -25 -9 -14 -24 -25 -34 -25 -25
0 -34 42 -13 58 9 6 13 12 9 12 -4 0 -4 5 0 12 5 8 11 5 17 -10 6 -12 16 -22
24 -22z m81 -81 c-2 -6 -8 -10 -13 -10 -5 0 -11 4 -13 10 -2 6 4 11 13 11 9 0
15 -5 13 -11z m-61 -49 c9 0 13 -6 9 -15 -3 -8 -1 -15 4 -15 6 0 1 -9 -10 -20
-11 -11 -28 -20 -37 -20 -17 1 -17 1 0 14 16 12 16 15 2 29 -20 20 -19 41 1
33 9 -3 22 -6 31 -6z m-26 -93 c-1 -12 -15 -9 -19 4 -3 6 1 10 8 8 6 -3 11 -8
11 -12z m57 -12 c-8 -18 -15 -22 -22 -15 -7 7 -4 15 10 25 25 19 25 19 12 -10z
m-78 -60 c0 -9 6 -12 18 -8 11 3 9 0 -6 -12 -18 -13 -26 -14 -37 -5 -18 15
-19 37 -2 43 16 6 27 -1 27 -18z m65 15 c3 -5 1 -10 -4 -10 -6 0 -11 5 -11 10
0 6 2 10 4 10 3 0 8 -4 11 -10z m65 -15 c0 -8 -4 -15 -10 -15 -5 0 -10 7 -10
15 0 8 5 15 10 15 6 0 10 -7 10 -15z m-110 -67 c0 -6 -7 -7 -16 -4 -9 3 -23 6
-32 6 -14 0 -14 2 -3 9 16 10 51 3 51 -11z m80 -108 c0 -5 -4 -10 -10 -10 -5
0 -10 5 -10 10 0 6 5 10 10 10 6 0 10 -4 10 -10z m-130 -30 c0 -5 -4 -10 -10
-10 -5 0 -10 5 -10 10 0 6 5 10 10 10 6 0 10 -4 10 -10z m20 -154 c-1 -21 -1
-21 -15 -2 -19 25 -19 37 0 30 8 -4 15 -16 15 -28z m50 -131 c0 -8 -4 -15 -10
-15 -5 0 -7 7 -4 15 4 8 8 15 10 15 2 0 4 -7 4 -15z m-22 -50 c16 -34 15 -36
-5 -28 -12 5 -15 2 -10 -10 7 -18 -7 -32 -23 -22 -7 4 -7 12 0 25 7 12 7 21 0
25 -6 4 -5 11 3 20 17 20 22 18 35 -10z m77 -73 c0 -18 -20 -15 -23 4 -3 10 1
15 10 12 7 -3 13 -10 13 -16z m-75 -42 c0 -5 -4 -10 -10 -10 -5 0 -10 5 -10
10 0 6 5 10 10 10 6 0 10 -4 10 -10z m-5 -50 c3 -5 2 -10 -4 -10 -5 0 -13 5
-16 10 -3 6 -2 10 4 10 5 0 13 -4 16 -10z m5 -130 c0 -5 -5 -10 -11 -10 -5 0
-7 5 -4 10 3 6 8 10 11 10 2 0 4 -4 4 -10z m100 -77 c-11 -17 -11 -17 -6 0 3
10 6 24 7 30 0 9 2 9 5 0 3 -7 0 -20 -6 -30z m-62 5 c16 -16 15 -43 -2 -57
-19 -16 -40 12 -32 44 7 28 16 31 34 13z m-83 -438 c3 -5 1 -10 -4 -10 -6 0
-11 5 -11 10 0 6 2 10 4 10 3 0 8 -4 11 -10z m40 -49 c7 -12 -12 -24 -25 -16
-11 7 -4 25 10 25 5 0 11 -4 15 -9z m102 -27 c-3 -3 -12 -4 -19 -1 -8 3 -5 6
6 6 11 1 17 -2 13 -5z m-120 -180 c-9 -9 -28 6 -21 18 4 6 10 6 17 -1 6 -6 8
-13 4 -17z m73 -4 c0 -5 -8 -10 -17 -10 -15 0 -16 2 -3 10 19 12 20 12 20 0z
m-50 -54 c0 -8 -7 -16 -15 -20 -12 -4 -13 -2 -2 14 14 24 17 25 17 6z m8 -130
c-7 -8 -15 -12 -17 -11 -5 6 10 25 20 25 5 0 4 -6 -3 -14z m37 -66 c3 -5 1
-10 -4 -10 -6 0 -11 5 -11 10 0 6 2 10 4 10 3 0 8 -4 11 -10z m-45 -20 c0 -5
7 -7 16 -3 11 4 7 -8 -13 -35 -15 -23 -36 -41 -45 -42 -25 0 -23 27 2 35 13 4
20 15 20 31 0 13 5 24 10 24 6 0 10 -4 10 -10z m109 -77 c-1 -16 -18 -48 -18
-36 -1 6 -4 18 -7 27 -4 11 -1 16 10 16 9 0 16 -3 15 -7z m-19 -93 c0 -11 -48
-25 -56 -17 -4 3 -3 10 1 16 8 14 55 14 55 1z m5680 -30 c0 -5 -2 -10 -4 -10
-3 0 -8 5 -11 10 -3 6 -1 10 4 10 6 0 11 -4 11 -10z m-6 -33 c25 -27 29 -78 7
-85 -10 -3 -12 0 -7 13 3 10 2 23 -3 29 -14 16 -32 66 -24 66 3 0 15 -11 27
-23z m-5672 -139 c-7 -7 -12 -22 -12 -35 0 -24 -25 -42 -38 -28 -4 4 -1 10 6
12 6 3 12 15 12 28 0 13 8 28 17 34 22 12 31 5 15 -11z m-85 -35 c-4 -3 1 -12
11 -19 16 -12 16 -13 -4 -14 -14 0 -20 -6 -20 -21 1 -22 -28 -48 -40 -36 -4 3
-1 13 6 22 8 10 9 15 2 15 -6 0 -16 9 -22 20 -9 16 -8 18 5 14 8 -4 15 -1 15
4 0 6 10 13 23 15 12 2 24 5 26 6 2 0 1 -2 -2 -6z m28 -73 c3 -5 1 -10 -4 -10
-6 0 -11 5 -11 10 0 6 2 10 4 10 3 0 8 -4 11 -10z m35 -250 c0 -5 -7 -7 -15
-4 -8 4 -15 8 -15 10 0 2 7 4 15 4 8 0 15 -4 15 -10z m-15 -50 c-3 -5 -11 -10
-16 -10 -6 0 -7 5 -4 10 3 6 11 10 16 10 6 0 7 -4 4 -10z m-55 -15 c0 -8 -7
-15 -15 -15 -8 0 -15 7 -15 15 0 8 7 15 15 15 8 0 15 -7 15 -15z m5760 -50 c0
-8 -7 -15 -15 -15 -8 0 -15 7 -15 15 0 8 7 15 15 15 8 0 15 -7 15 -15z m-5668
-123 c22 -16 24 -32 4 -32 -8 0 -18 9 -21 20 -3 11 -10 20 -15 20 -5 0 -6 8
-3 17 5 14 8 14 11 2 3 -7 13 -20 24 -27z m1443 -92 c8 0 17 -5 21 -12 5 -7 2
-9 -8 -5 -9 3 -19 2 -24 -3 -5 -5 -10 3 -10 18 -1 15 1 21 3 15 3 -7 11 -13
18 -13z m2735 -10 c0 -5 -4 -10 -10 -10 -5 0 -10 5 -10 10 0 6 5 10 10 10 6 0
10 -4 10 -10z m-2996 -26 c3 -8 2 -12 -4 -9 -6 3 -10 10 -10 16 0 14 7 11 14
-7z m-54 -14 c0 -5 11 -10 25 -10 23 0 34 -18 19 -33 -10 -10 -64 22 -64 38 0
8 5 15 10 15 6 0 10 -4 10 -10z m420 0 c0 -5 -2 -10 -4 -10 -3 0 -8 5 -11 10
-3 6 -1 10 4 10 6 0 11 -4 11 -10z m-130 -16 c0 -8 -5 -12 -10 -9 -6 4 -8 11
-5 16 9 14 15 11 15 -7z m220 6 c0 -5 -5 -10 -11 -10 -5 0 -7 5 -4 10 3 6 8
10 11 10 2 0 4 -4 4 -10z m3085 1 c3 -5 1 -12 -5 -16 -5 -3 -10 1 -10 9 0 18
6 21 15 7z m-3905 -15 c0 -2 -7 -7 -16 -10 -8 -3 -12 -2 -9 4 6 10 25 14 25 6z
m57 -18 c-3 -8 -6 -5 -6 6 -1 11 2 17 5 13 3 -3 4 -12 1 -19z m-959 -11 c2
-10 -3 -17 -12 -17 -18 0 -29 16 -21 31 9 14 29 6 33 -14z m793 8 c-1 -15 -24
-12 -29 3 -3 9 2 13 12 10 10 -1 17 -7 17 -13z m-691 -15 c-12 -21 -25 -26
-35 -11 -3 6 3 14 12 20 27 16 35 13 23 -9z m944 4 c5 -14 4 -15 -9 -4 -17 14
-19 20 -6 20 5 0 12 -7 15 -16z m-321 -29 c-4 -46 -56 -75 -70 -39 -3 9 -1 19
4 23 6 3 15 16 22 29 18 33 47 24 44 -13z m1057 32 c0 -2 -8 -19 -17 -38 -16
-31 -18 -32 -21 -11 -4 23 13 52 29 52 5 0 9 -2 9 -3z m-663 -39 c-3 -8 -6 -5
-6 6 -1 11 2 17 5 13 3 -3 4 -12 1 -19z m721 -22 c3 -13 -2 -17 -20 -14 -15 2
-24 11 -26 25 -3 20 0 22 20 14 13 -4 25 -16 26 -25z m-1895 9 c-6 -17 -25
-15 -31 3 -2 7 5 12 17 12 14 0 19 -5 14 -15z m2122 5 c-3 -5 -11 -10 -16 -10
-6 0 -7 5 -4 10 3 6 11 10 16 10 6 0 7 -4 4 -10z m-1973 -35 c-2 -19 -8 -38
-13 -41 -10 -6 -12 36 -3 60 11 28 20 17 16 -19z m-32 9 c0 -9 -5 -14 -12 -12
-18 6 -21 28 -4 28 9 0 16 -7 16 -16z m1030 0 c0 -8 -5 -12 -10 -9 -6 4 -8 11
-5 16 9 14 15 11 15 -7z m1220 6 c0 -5 -7 -10 -15 -10 -8 0 -15 5 -15 10 0 6
7 10 15 10 8 0 15 -4 15 -10z m-1530 -34 c0 -3 -4 -8 -10 -11 -5 -3 -10 -1
-10 4 0 6 5 11 10 11 6 0 10 -2 10 -4z m-60 -16 c0 -5 -4 -10 -10 -10 -5 0
-10 5 -10 10 0 6 5 10 10 10 6 0 10 -4 10 -10z m-770 -10 c0 -5 -4 -10 -10
-10 -5 0 -10 5 -10 10 0 6 5 10 10 10 6 0 10 -4 10 -10z m85 0 c-3 -5 -12 -10
-18 -10 -7 0 -6 4 3 10 19 12 23 12 15 0z m488 -52 c7 -25 3 -33 -12 -23 -13
8 -15 45 -2 45 5 0 11 -10 14 -22z m-458 2 c3 -5 2 -10 -4 -10 -5 0 -13 5 -16
10 -3 6 -2 10 4 10 5 0 13 -4 16 -10z m-76 -33 c0 -12 -3 -16 -6 -9 -2 6 -11
12 -19 12 -8 0 -14 -6 -14 -12 0 -9 -3 -9 -9 1 -7 11 -3 18 12 26 28 15 37 10
36 -18z m81 -42 c-7 -9 -15 -13 -18 -10 -3 2 1 11 8 20 7 9 15 13 18 10 3 -2
-1 -11 -8 -20z m440 17 c0 -5 -6 -16 -13 -26 -11 -16 -13 -15 -15 8 -1 17 3
26 13 26 8 0 15 -4 15 -8z m30 4 c0 -3 -4 -8 -10 -11 -5 -3 -10 -1 -10 4 0 6
5 11 10 11 6 0 10 -2 10 -4z m4746 -11 c8 -20 -13 -45 -38 -45 -14 0 -18 5
-14 16 3 9 6 22 6 30 0 19 39 18 46 -1z m494 -15 c0 -5 -4 -10 -10 -10 -5 0
-10 5 -10 10 0 6 5 10 10 10 6 0 10 -4 10 -10z m-25 -70 c3 -5 1 -10 -4 -10
-6 0 -11 5 -11 10 0 6 2 10 4 10 3 0 8 -4 11 -10z m-5795 -10 c0 -5 -2 -10 -4
-10 -3 0 -8 5 -11 10 -3 6 -1 10 4 10 6 0 11 -4 11 -10z m365 -10 c3 -5 1 -10
-4 -10 -6 0 -11 5 -11 10 0 6 2 10 4 10 3 0 8 -4 11 -10z m5145 -40 c0 -5 -7
-10 -15 -10 -8 0 -15 5 -15 10 0 6 7 10 15 10 8 0 15 -4 15 -10z m80 -30 c0
-5 -2 -10 -4 -10 -3 0 -8 5 -11 10 -3 6 -1 10 4 10 6 0 11 -4 11 -10z m207
-42 c-3 -8 -6 -5 -6 6 -1 11 2 17 5 13 3 -3 4 -12 1 -19z m-5794 -44 c-3 -8
-13 -14 -22 -13 -9 0 -11 3 -4 5 7 3 9 12 6 20 -4 10 0 12 10 8 9 -3 13 -12
10 -20z m67 -53 c0 -6 -4 -13 -10 -16 -5 -3 -10 1 -10 9 0 9 5 16 10 16 6 0
10 -4 10 -9z"/>
<path d="M7925 7340 c-11 -4 -31 -19 -44 -33 l-24 -26 -1 -1293 c-1 -1138 1
-1294 14 -1305 10 -9 11 -12 3 -13 -10 0 -13 -65 -13 -291 l0 -291 34 -34 c39
-39 80 -45 126 -17 35 20 50 53 57 118 3 36 0 56 -11 70 -13 17 -17 18 -25 5
-11 -17 -18 -13 -23 14 -4 22 32 48 39 28 3 -6 9 -10 13 -7 13 8 13 2855 1
2855 -5 0 -13 -4 -16 -10 -3 -5 -10 -10 -16 -10 -5 0 -4 9 3 20 7 11 19 20 27
20 11 0 13 13 9 64 -6 73 -34 119 -81 136 -35 12 -45 12 -72 0z m5 -255 c-7
-8 -16 -12 -21 -9 -13 8 -1 24 18 24 13 0 13 -3 3 -15z m40 -389 c0 -3 -4 -8
-10 -11 -5 -3 -10 -1 -10 4 0 6 5 11 10 11 6 0 10 -2 10 -4z m59 -395 c8 -5 9
-11 3 -15 -6 -3 -13 -2 -17 4 -4 6 -11 7 -17 4 -7 -4 -8 -2 -4 4 8 14 16 15
35 3z m-99 -151 c-17 -11 -40 -13 -40 -4 0 15 35 32 45 23 6 -7 5 -13 -5 -19z
m55 -1520 c-3 -5 -23 -10 -43 -10 -28 0 -33 3 -22 10 20 13 73 13 65 0z m45
-35 c0 -8 -9 -19 -19 -25 -30 -15 -33 -12 -15 15 18 28 34 33 34 10z m20 -166
c0 -6 -4 -7 -10 -4 -5 3 -10 11 -10 16 0 6 5 7 10 4 6 -3 10 -11 10 -16z m-54
-116 c-11 -11 -19 6 -11 24 8 17 8 17 12 0 3 -10 2 -21 -1 -24z"/>
<path d="M7463 7000 c-37 -22 -48 -52 -40 -118 14 -123 175 -139 207 -20 31
113 -71 197 -167 138z m67 -44 c0 -3 -4 -8 -10 -11 -5 -3 -10 -1 -10 4 0 6 5
11 10 11 6 0 10 -2 10 -4z m10 -115 c0 -5 -11 -8 -25 -8 -29 0 -34 14 -7 20
20 4 32 0 32 -12z m30 -11 c0 -5 -5 -10 -11 -10 -5 0 -7 5 -4 10 3 6 8 10 11
10 2 0 4 -4 4 -10z"/>
<path d="M3704 6893 c-12 -2 -36 -17 -55 -32 -30 -25 -34 -35 -34 -75 0 -66
29 -91 141 -121 49 -12 115 -30 147 -40 l57 -16 0 -149 0 -148 33 5 c17 3 34
9 35 14 2 5 9 9 15 9 5 0 7 -3 4 -7 -4 -3 1 -15 10 -26 13 -15 15 -21 6 -24
-15 -5 -18 -24 -4 -21 5 2 9 0 10 -4 1 -11 -1 -12 -28 -3 -18 5 -20 9 -10 16
12 7 11 11 -4 26 -18 17 -19 17 -32 -1 -7 -10 -18 -15 -24 -11 -7 4 -11 -9
-11 -38 0 -40 2 -45 20 -40 11 3 20 1 20 -5 0 -5 -8 -12 -19 -15 -16 -4 -19
-19 -24 -138 -3 -74 -4 -147 -3 -164 2 -16 4 -36 5 -44 1 -8 9 -4 22 13 11 14
25 24 30 21 5 -4 9 1 9 9 0 28 16 17 18 -11 1 -16 7 -29 12 -31 19 -7 10 -20
-24 -36 -43 -20 -53 -20 -59 2 -3 9 -5 -156 -6 -368 -1 -212 -4 -523 -7 -692
-7 -335 -4 -362 45 -391 59 -34 115 -16 145 47 19 40 23 264 6 297 -7 13 -7
19 0 19 17 0 11 18 -7 23 -17 4 -17 5 0 6 16 1 17 20 17 245 0 187 -3 245 -12
249 -10 3 -10 7 -1 18 9 11 12 105 13 362 0 335 -1 347 -18 338 -14 -8 -19 -6
-19 5 0 7 9 14 19 14 12 0 18 7 18 21 0 18 -4 21 -29 16 -21 -5 -31 -2 -35 10
-8 21 11 43 38 43 16 0 18 -2 7 -9 -7 -5 -10 -14 -7 -20 22 -34 26 7 26 239 0
145 4 250 9 250 5 0 17 3 27 7 13 5 16 3 11 -10 -5 -13 4 -22 33 -37 22 -11
81 -46 132 -77 227 -137 261 -155 296 -148 83 15 130 117 82 177 -27 35 -155
112 -170 103 -6 -4 -20 5 -31 19 -11 14 -27 26 -35 26 -8 0 -14 4 -14 8 0 13
-283 147 -393 187 -97 35 -98 35 -92 13 6 -21 4 -21 -17 4 -26 30 -141 77
-132 53 3 -7 1 -16 -5 -20 -7 -3 -11 2 -11 14 0 14 -8 22 -27 26 -16 3 -42 10
-59 15 -17 6 -32 9 -35 9 -2 -1 -13 -4 -25 -6z m20 -29 c20 -8 11 -24 -14 -24
-13 0 -17 5 -14 15 7 17 7 17 28 9z m346 -88 c0 -3 -4 -8 -10 -11 -5 -3 -10
-1 -10 4 0 6 5 11 10 11 6 0 10 -2 10 -4z m20 -36 c0 -5 -7 -7 -15 -4 -8 4
-15 8 -15 10 0 2 7 4 15 4 8 0 15 -4 15 -10z m-44 -37 c-11 -11 -19 6 -11 24
8 17 8 17 12 0 3 -10 2 -21 -1 -24z m334 -57 c0 -2 -8 -10 -17 -17 -16 -13
-17 -12 -4 4 13 16 21 21 21 13z m-86 -31 c3 -8 1 -15 -4 -15 -6 0 -10 7 -10
15 0 8 2 15 4 15 2 0 6 -7 10 -15z m65 -14 c14 -9 7 -51 -9 -51 -13 0 -32 39
-25 50 8 12 16 12 34 1z m-79 -81 c0 -5 -4 -10 -9 -10 -6 0 -13 5 -16 10 -3 6
1 10 9 10 9 0 16 -4 16 -10z m336 -85 c-8 -8 -18 -15 -22 -15 -3 0 -1 7 6 15
7 8 17 15 22 15 5 0 3 -7 -6 -15z m-532 -57 c-2 -35 -4 -65 -4 -68 0 -3 -7 4
-15 15 -10 13 -13 30 -9 55 6 30 20 60 29 60 2 0 1 -28 -1 -62z m36 33 c0 -19
-12 -41 -20 -36 -10 6 -1 45 11 45 5 0 9 -4 9 -9z m570 -40 c0 -11 -31 -24
-39 -16 -3 3 1 10 9 15 19 12 30 12 30 1z m-673 -266 c-10 -7 -18 -25 -18 -41
-1 -21 -3 -23 -6 -9 -3 11 -9 24 -14 30 -15 15 -11 25 14 34 29 11 45 1 24
-14z m83 -29 c0 -3 -4 -8 -10 -11 -5 -3 -10 -1 -10 4 0 6 5 11 10 11 6 0 10
-2 10 -4z m-40 -35 c0 -12 -20 -25 -27 -18 -7 7 6 27 18 27 5 0 9 -4 9 -9z
m45 -104 c-5 -17 -12 -24 -21 -20 -8 3 -14 0 -14 -7 0 -6 -4 -8 -10 -5 -18 11
-11 30 18 46 33 19 35 18 27 -14z m-25 -267 c0 -5 -4 -10 -10 -10 -5 0 -10 5
-10 10 0 6 5 10 10 10 6 0 10 -4 10 -10z m-20 -710 c0 -5 7 -10 15 -10 8 0 15
-5 15 -11 0 -18 -45 -5 -48 14 -2 9 1 17 7 17 6 0 11 -4 11 -10z m60 -250 c0
-11 -4 -20 -9 -20 -5 0 -7 9 -4 20 3 11 7 20 9 20 2 0 4 -9 4 -20z m-70 -177
c0 -14 -15 -30 -37 -42 -21 -10 -23 -9 -23 10 0 12 3 20 6 16 4 -3 13 0 21 8
15 16 33 20 33 8z"/>
<path d="M6335 6860 c-144 -32 -197 -51 -191 -66 8 -21 -15 -29 -29 -10 -11
15 -20 14 -111 -17 -197 -68 -394 -158 -429 -197 -19 -21 -20 -39 -23 -288
l-3 -265 32 -29 c17 -16 29 -31 26 -34 -3 -3 -14 3 -25 14 -17 17 -21 18 -26
5 -3 -8 -6 -256 -6 -552 0 -397 3 -540 12 -549 9 -9 8 -20 -1 -49 -9 -27 -11
-112 -9 -301 l3 -264 33 -29 c28 -25 41 -30 74 -27 45 3 62 22 28 31 -18 5
-20 9 -11 26 12 22 46 18 37 -5 -11 -28 14 -23 29 5 13 26 15 104 15 582 0
514 1 553 18 566 9 7 58 41 109 74 91 61 92 61 76 85 -14 21 -14 24 0 30 9 3
13 12 10 20 -4 10 0 12 12 8 11 -5 15 -15 12 -31 -2 -13 -1 -26 4 -29 4 -2 58
20 119 51 61 31 159 71 218 91 117 38 136 51 152 99 22 68 -35 136 -112 134
-64 -2 -83 -13 -80 -43 2 -16 10 -39 19 -53 9 -13 13 -26 10 -30 -4 -3 -11 6
-16 20 -15 39 -27 40 -55 6 -15 -17 -29 -29 -33 -26 -3 4 9 18 26 32 33 29 35
33 22 53 -11 18 -64 4 -197 -55 -102 -45 -103 -46 -98 -77 4 -29 4 -29 -7 -8
-7 12 -16 22 -20 22 -12 0 -79 -40 -128 -77 -54 -41 -62 -33 -60 52 1 41 -2
59 -10 58 -6 -2 -11 6 -11 16 0 11 -3 28 -7 38 -6 16 -5 16 10 4 16 -13 17 5
17 268 l0 282 101 49 c56 26 152 65 215 86 l114 39 -6 35 -6 35 24 -29 24 -28
104 25 c58 14 131 31 163 37 46 9 62 18 82 44 14 18 25 45 25 60 0 35 -25 82
-49 96 -29 15 -125 11 -216 -10z m-130 -1060 c-3 -5 -11 -10 -16 -10 -6 0 -7
5 -4 10 3 6 11 10 16 10 6 0 7 -4 4 -10z m-31 -31 c-8 -14 -24 -10 -24 6 0 9
6 12 15 9 8 -4 12 -10 9 -15z m148 -15 c6 -8 0 -13 -16 -16 -31 -6 -41 15 -19
38 14 14 18 14 21 3 3 -8 9 -19 14 -25z m-132 -84 c-8 -5 -19 -10 -25 -10 -5
0 -3 5 5 10 8 5 20 10 25 10 6 0 3 -5 -5 -10z m-140 -50 c-8 -5 -22 -10 -30
-10 -13 0 -13 1 0 10 8 5 22 10 30 10 13 0 13 -1 0 -10z m57 4 c-3 -3 -12 -4
-19 -1 -8 3 -5 6 6 6 11 1 17 -2 13 -5z m-249 -11 c-10 -2 -28 -2 -40 0 -13 2
-5 4 17 4 22 1 32 -1 23 -4z m-248 -694 c0 -5 -4 -9 -10 -9 -5 0 -10 7 -10 16
0 8 5 12 10 9 6 -3 10 -10 10 -16z m-17 -179 c-8 -31 -23 -34 -23 -6 0 16 6
26 14 26 9 0 12 -7 9 -20z m38 -13 c-1 -12 -15 -9 -19 4 -3 6 1 10 8 8 6 -3
11 -8 11 -12z m4 -84 c-28 -20 -41 -16 -20 7 10 11 22 17 28 13 6 -4 3 -12 -8
-20z m15 -23 c0 -5 -7 -10 -16 -10 -8 0 -12 5 -9 10 3 6 10 10 16 10 5 0 9 -4
9 -10z m4 -123 c-3 -9 -11 -17 -16 -17 -6 0 -7 7 -4 16 3 9 6 21 6 27 0 8 3 8
10 1 6 -6 8 -18 4 -27z m-2 -97 c-3 -42 -1 -60 7 -60 7 0 9 -4 6 -10 -3 -5
-14 -10 -23 -10 -15 0 -18 11 -18 70 -1 59 1 70 16 70 14 0 16 -9 12 -60z"/>
<path d="M2797 5414 c3 -7 9 -14 14 -14 14 0 10 17 -5 23 -10 4 -13 1 -9 -9z"/>
<path d="M3570 3252 c-70 -3 -80 -10 -80 -59 0 -18 -4 -33 -9 -33 -16 0 -40
47 -34 69 3 11 4 21 2 21 -2 0 -38 -6 -79 -14 -41 -8 -109 -17 -150 -21 -84
-8 -124 -20 -115 -34 9 -16 -13 -22 -34 -10 -21 14 -106 -5 -206 -43 -27 -11
-61 -22 -75 -24 -50 -9 -52 -12 -29 -44 13 -16 20 -32 17 -36 -9 -9 -58 26
-58 42 0 16 -9 18 -29 5 -9 -6 -10 -11 -2 -15 13 -9 15 -43 2 -50 -5 -3 -8 2
-7 12 0 11 -7 18 -21 20 -16 2 -23 -2 -23 -12 0 -9 -4 -16 -10 -16 -5 0 -10
-20 -10 -44 0 -53 34 -101 79 -111 35 -8 270 60 289 83 8 11 12 12 12 3 0 -8
6 -11 16 -7 37 14 278 61 367 72 60 7 70 16 36 35 -15 8 -18 14 -10 22 6 6 11
18 11 27 0 11 10 15 35 16 l34 0 -19 -31 c-28 -45 -27 -69 3 -61 12 3 49 6 83
6 l61 0 -4 33 c-2 17 0 27 3 20 3 -7 12 -9 20 -6 12 4 14 0 8 -21 l-6 -26 136
0 c114 0 136 2 136 15 0 8 7 15 16 15 9 0 18 9 21 20 3 11 10 20 15 20 6 0 7
-7 4 -16 -3 -9 -6 -19 -6 -24 0 -4 -9 -10 -21 -13 -33 -9 -12 -27 32 -27 22 0
71 -5 110 -11 38 -7 72 -9 76 -6 3 4 1 18 -5 31 -9 20 -8 25 9 29 13 3 17 11
13 21 -4 11 -1 16 10 16 21 0 21 38 -1 62 -25 28 -3 21 41 -12 35 -27 37 -30
17 -30 -19 0 -22 -4 -17 -22 3 -13 6 -29 6 -35 0 -7 9 -13 19 -13 11 0 23 -4
26 -10 4 -6 -10 -10 -34 -10 -37 0 -41 -3 -41 -24 0 -22 6 -26 45 -32 50 -7
100 8 115 35 9 18 15 69 12 114 -3 36 -42 60 -146 85 -178 45 -524 73 -534 43
-5 -15 -22 -14 -41 2 -10 7 -40 11 -81 9z m-19 -45 c-10 -9 -11 -8 -5 6 3 10
9 15 12 12 3 -3 0 -11 -7 -18z m238 -3 c8 -7 -12 -24 -30 -24 -13 0 -19 7 -19
21 0 16 4 19 23 13 12 -3 24 -8 26 -10z m164 1 c7 -16 -8 -29 -23 -20 -15 9
-12 35 4 35 8 0 16 -7 19 -15z m-810 -51 c16 -6 9 -67 -8 -62 -8 2 -16 68 -9
68 1 0 9 -2 17 -6z m-69 -12 c2 -4 -4 -13 -15 -20 -15 -10 -19 -10 -19 1 0 24
23 36 34 19z m1216 -2 c0 -5 -7 -10 -15 -10 -8 0 -15 5 -15 10 0 6 7 10 15 10
8 0 15 -4 15 -10z m-595 -40 c-14 -26 -17 -28 -45 -17 -28 11 -44 47 -20 47 6
0 10 -4 10 -10 0 -5 7 -10 15 -10 8 0 15 6 15 14 0 9 7 12 20 9 18 -5 18 -7 5
-33z m450 32 c13 -9 18 -40 10 -61 -5 -12 -10 -9 -25 19 -22 42 -14 64 15 42z
m-749 -36 c15 -16 18 -26 6 -26 -4 0 -13 9 -20 20 -14 23 -7 26 14 6z m154
-21 c-6 -7 -8 -20 -4 -29 4 -11 1 -16 -10 -16 -10 0 -13 6 -10 15 4 9 0 15
-10 15 -21 0 -20 27 1 39 23 12 48 -6 33 -24z m-550 5 c0 -5 -5 -10 -11 -10
-5 0 -7 5 -4 10 3 6 8 10 11 10 2 0 4 -4 4 -10z m60 6 c0 -3 -4 -8 -10 -11 -5
-3 -10 -1 -10 4 0 6 5 11 10 11 6 0 10 -2 10 -4z m-210 -16 c0 -5 -4 -10 -10
-10 -5 0 -10 5 -10 10 0 6 5 10 10 10 6 0 10 -4 10 -10z m387 -19 c-5 -23 -2
-31 11 -34 13 -3 10 -7 -12 -16 -24 -9 -32 -9 -46 4 -9 8 -20 12 -24 8 -4 -4
-11 -1 -16 7 -13 21 7 42 29 30 13 -6 22 -4 34 11 23 27 30 24 24 -10z m78 19
c3 -5 -1 -10 -9 -10 -9 0 -16 5 -16 10 0 6 4 10 9 10 6 0 13 -4 16 -10z m772
-16 c-3 -3 -12 -4 -19 -1 -8 3 -5 6 6 6 11 1 17 -2 13 -5z m-1408 -153 c-6 -2
-15 3 -20 10 -15 24 -10 29 11 11 12 -10 16 -18 9 -21z m71 10 c0 -6 -4 -13
-10 -16 -5 -3 -10 1 -10 9 0 9 5 16 10 16 6 0 10 -4 10 -9z"/>
<path d="M6352 3240 c-119 -13 -183 -72 -168 -153 10 -53 48 -82 104 -80 26 0
126 4 222 8 315 12 568 -33 933 -164 51 -19 60 -20 90 -7 49 20 77 61 77 111
0 77 -40 106 -235 169 -146 47 -293 81 -440 101 -138 19 -475 28 -583 15z
m108 -30 c0 -5 -5 -10 -11 -10 -5 0 -7 5 -4 10 3 6 8 10 11 10 2 0 4 -4 4 -10z
m-160 -98 c0 -10 5 -23 12 -30 9 -9 8 -12 -5 -12 -10 0 -17 8 -17 18 0 10 -5
23 -12 30 -9 9 -8 12 5 12 10 0 17 -8 17 -18z m770 -67 c0 -8 -9 -15 -20 -15
-20 0 -26 11 -13 23 12 13 33 7 33 -8z"/>
<path d="M5720 3125 c-166 -57 -261 -107 -284 -149 -24 -46 -15 -93 25 -132
41 -39 83 -37 184 10 44 21 111 44 148 52 106 22 151 52 169 111 9 33 -8 86
-36 112 -39 37 -88 36 -206 -4z m124 -129 c-10 -8 -21 -12 -23 -10 -3 2 4 11
15 18 10 8 21 12 23 10 3 -2 -4 -11 -15 -18z m66 -15 c0 -5 -9 -11 -20 -14
-22 -6 -28 8 -7 16 19 8 27 8 27 -2z m-250 -51 c0 -5 -2 -10 -4 -10 -3 0 -8 5
-11 10 -3 6 -1 10 4 10 6 0 11 -4 11 -10z"/>
<path d="M4649 3035 c-52 -29 -76 -92 -53 -140 12 -26 34 -40 122 -80 59 -27
119 -57 133 -67 15 -10 37 -19 50 -20 13 -2 34 -15 47 -30 13 -15 51 -41 85
-57 54 -27 67 -29 102 -21 64 15 93 60 85 135 -4 42 -43 74 -178 148 -229 127
-338 163 -393 132z m181 -69 c0 -3 -4 -8 -10 -11 -5 -3 -10 -1 -10 4 0 6 5 11
10 11 6 0 10 -2 10 -4z m240 -96 c0 -5 -2 -10 -4 -10 -3 0 -8 5 -11 10 -3 6
-1 10 4 10 6 0 11 -4 11 -10z m-130 -30 c0 -5 -9 -14 -19 -20 -25 -13 -38 5
-14 19 23 13 33 14 33 1z m155 -80 c3 -5 1 -10 -4 -10 -6 0 -11 5 -11 10 0 6
2 10 4 10 3 0 8 -4 11 -10z m103 -18 c5 -31 -15 -27 -21 3 -3 16 0 24 7 22 6
-2 12 -13 14 -25z m-230 -11 c3 -8 -1 -12 -9 -9 -7 2 -15 10 -17 17 -3 8 1 12
9 9 7 -2 15 -10 17 -17z m125 -15 c12 -9 14 -16 8 -21 -6 -3 -18 0 -26 9 -27
27 -14 36 18 12z"/>
<path d="M4188 3033 c7 -3 16 -2 19 1 4 3 -2 6 -13 5 -11 0 -14 -3 -6 -6z"/>
<path d="M3316 2794 c6 -3 9 -16 6 -29 -5 -27 7 -32 26 -13 23 23 14 48 -15
47 -16 0 -23 -3 -17 -5z"/>
<path d="M2176 2435 c-3 -8 -1 -15 4 -15 6 0 10 7 10 15 0 8 -2 15 -4 15 -2 0
-6 -7 -10 -15z"/>
</g>
</svg>
