<?xml version="1.0" standalone="no"?>
<!DOCTYPE svg PUBLIC "-//W3C//DTD SVG 20010904//EN"
 "http://www.w3.org/TR/2001/REC-SVG-20010904/DTD/svg10.dtd">
<svg version="1.0" xmlns="http://www.w3.org/2000/svg"
 width="1024.000000pt" height="1024.000000pt" viewBox="0 0 1024.000000 1024.000000"
 preserveAspectRatio="xMidYMid meet">

<g transform="translate(0.000000,1024.000000) scale(0.100000,-0.100000)"
fill="#ffffff" stroke="none">
<path d="M3515 7733 c-377 -26 -757 -128 -1084 -292 l-101 -51 0 -2155 0
-2155 33 14 c281 122 364 156 489 197 291 96 557 134 888 126 403 -10 614 -66
1010 -269 118 -61 239 -119 269 -129 118 -41 196 -22 426 106 313 174 523 246
829 281 176 20 555 15 716 -10 281 -44 439 -96 868 -282 l32 -14 0 2174 0
2174 -82 20 c-46 12 -175 51 -288 87 -362 116 -554 157 -841 177 -460 32 -879
-62 -1274 -287 -164 -93 -205 -109 -253 -101 -20 3 -120 48 -222 99 -340 172
-623 255 -980 287 -107 9 -320 11 -435 3z m3405 -257 c122 -24 224 -50 495
-130 l240 -71 3 -1905 c1 -1047 -1 -1907 -5 -1911 -5 -4 -53 8 -108 27 -328
115 -708 173 -1065 161 -400 -13 -644 -73 -988 -242 -106 -52 -205 -96 -220
-97 l-27 -3 -3 1892 -2 1892 137 82 c320 191 565 281 866 319 116 14 577 4
677 -14z m-3777 -838 c9 -7 50 -92 91 -188 40 -96 141 -335 223 -530 82 -195
172 -408 198 -473 27 -64 52 -114 56 -110 4 5 121 274 259 598 139 325 261
610 271 635 36 82 31 80 224 80 126 0 175 -3 183 -12 7 -9 11 -406 14 -1191 3
-1145 2 -1179 -16 -1192 -24 -18 -293 -18 -328 -1 l-23 12 -5 769 -5 770 -142
-335 c-78 -184 -178 -420 -220 -525 l-78 -190 -141 -3 c-105 -2 -144 1 -152
10 -5 7 -103 245 -216 528 l-205 515 -1 -767 0 -768 -25 -16 c-21 -14 -45 -15
-177 -9 -84 4 -159 12 -165 17 -10 8 -13 256 -13 1177 0 1040 2 1169 16 1189
15 21 21 22 188 22 122 0 177 -4 189 -12z"/>
<path d="M5702 5473 l3 -1218 149 -3 c91 -1 153 1 159 7 7 7 10 198 8 546 -2
477 -1 539 13 560 l16 25 478 2 477 3 3 134 c2 101 -1 136 -10 143 -7 4 -223
8 -479 8 -382 0 -469 2 -478 14 -8 9 -11 112 -9 357 l3 344 605 5 c333 3 606
6 608 8 1 1 1 64 0 140 l-3 137 -773 3 -772 2 2 -1217z"/>
<path d="M8170 4882 c0 -1753 -2 -2111 -13 -2127 -12 -15 -23 -17 -73 -13 -81
8 -158 36 -369 133 -285 131 -443 185 -660 224 -423 78 -908 43 -1230 -89 -52
-21 -156 -73 -232 -116 -232 -132 -363 -173 -507 -160 -136 13 -254 54 -404
143 -137 80 -256 137 -358 171 -389 130 -980 120 -1410 -23 -73 -25 -222 -86
-331 -136 -238 -109 -324 -139 -420 -146 -62 -5 -76 -3 -93 12 -20 18 -20 35
-20 2122 0 1156 -2 2103 -5 2103 -15 0 -89 -44 -120 -72 -46 -39 -72 -91 -82
-160 -4 -29 -6 -955 -3 -2058 l5 -2005 22 -40 c42 -79 118 -122 231 -132 130
-11 281 33 577 167 268 121 412 167 650 207 155 25 577 26 715 0 225 -41 307
-71 481 -173 303 -177 474 -227 687 -203 156 18 231 45 457 170 245 135 386
183 619 213 274 36 508 30 751 -19 167 -34 277 -72 518 -181 266 -121 334
-148 431 -169 143 -32 292 -3 351 67 14 16 33 55 42 86 17 54 18 171 15 2042
-2 1333 -6 2005 -13 2044 -13 74 -39 126 -80 160 -34 29 -101 66 -119 66 -7 0
-10 -656 -10 -2108z"/>
</g>
</svg>
